# xmcd CD database file
#
# Track frame offsets:
#	150
#	10468
#	24748
#	40626
#	53796
#	76302
#	91748
#
# Disc length: 1432 seconds
#
# Revision: 0
# Processed by: cddbd v1.5PL3 Copyright (c) Steve Scherf et al.
# Submitted via: CDex 1.51
#
DISCID=47059607
DTITLE=Brigitte LA - Flesh with feelings
DYEAR=2003
DGENRE=Rhythmic Soul
TTITLE0=Flesh with feelings
TTITLE1=Hard to tame
TTITLE2=War
TTITLE3=Rebel angel
TTITLE4=Depress
TTITLE5=Sleep to forget
TTITLE6=Unruly
EXTD=YEAR: 2003
EXTT0=
EXTT1=
EXTT2=
EXTT3=
EXTT4=
EXTT5=
EXTT6=
PLAYORDER=
